<svg width="170" height="46" viewBox="0 0 170 46" fill="none" xmlns="http://www.w3.org/2000/svg">
<path d="M119.419 14.1538L118.8 18.0163H131.855L148.73 0.38916H53.5863L36.7115 18.0163H73.857L74.8663 14.9915H79.0316L79.7154 18.0163H86.5632L88.1117 14.9915H93.3947L93.4012 18.0163H113.869L114.491 14.1538H119.419Z" fill="#00B4CD"/>
<path d="M93.4243 36.4649H88.0197L87.9868 24.9786L82.0134 36.5594H79.1927L76.4871 24.4505L72.7361 36.4649H67.7161L74.8664 14.9981H79.0317L81.8063 27.296L88.1117 14.9981H93.3948L93.4243 36.4649Z" fill="white"/>
<path d="M110.917 36.4648H115.858L116.93 29.8839L121.822 36.4648H128.469L122.259 28.6127L128.272 22.3285H121.677L117.265 27.6512L119.418 14.1636H114.49L110.917 36.4648Z" fill="white"/>
<path d="M3.24477 14.9752H11.378C15.78 15.1479 18.4791 18.2216 17.7525 22.8794C16.9767 27.661 14.0442 29.7568 9.39897 29.7568H6.39419L5.31918 36.4746H0L3.23819 14.9622L3.24477 14.9752ZM7.06813 25.4869H7.96891C9.8921 25.4869 11.7857 25.4869 12.1835 23.0098C12.5878 20.4641 11.0066 19.1147 8.9453 19.1147H8.05438L7.06813 25.4869Z" fill="white"/>
<path d="M21.4212 36.4647H16.49L19.8728 14.9523H24.8107L21.4212 36.4647Z" fill="white"/>
<path d="M170 15.0862C169.997 15.6855 169.814 16.2703 169.475 16.7667C169.137 17.263 168.657 17.6486 168.097 17.8745C167.537 18.1004 166.922 18.1565 166.33 18.0357C165.738 17.9149 165.196 17.6226 164.771 17.1959C164.347 16.7691 164.06 16.2272 163.946 15.6385C163.833 15.0499 163.898 14.4411 164.134 13.8892C164.369 13.3373 164.765 12.8672 165.27 12.5384C165.775 12.2095 166.368 12.0367 166.972 12.0419C167.78 12.0513 168.551 12.3764 169.118 12.9465C169.685 13.5166 170.002 14.2856 170 15.0862ZM164.497 15.0862C164.512 15.5608 164.668 16.0205 164.945 16.408C165.222 16.7955 165.608 17.0937 166.054 17.2656C166.501 17.4374 166.988 17.4753 167.456 17.3745C167.924 17.2737 168.352 17.0387 168.687 16.6988C169.021 16.3588 169.247 15.9288 169.337 15.4623C169.427 14.9959 169.377 14.5135 169.192 14.0752C169.008 13.6369 168.697 13.2621 168.3 12.9974C167.902 12.7326 167.435 12.5896 166.956 12.5862C166.295 12.5956 165.664 12.8649 165.203 13.3349C164.742 13.8049 164.488 14.4371 164.497 15.0927V15.0862ZM168.521 16.8365H167.488L166.502 15.4806V16.8365H165.677V13.3522H166.798C167.656 13.3522 168.143 13.7368 168.143 14.4213C168.148 14.6487 168.073 14.8707 167.93 15.0492C167.788 15.2277 167.588 15.3514 167.363 15.3991L168.521 16.8365ZM166.643 14.8971C167.058 14.8971 167.281 14.7407 167.281 14.431C167.281 14.1214 167.068 13.9812 166.653 13.9812H166.496V14.8906H166.647L166.643 14.8971Z" fill="white"/>
<path d="M0 41.7255L0.00657501 45.6107H62.7321L66.4536 41.7255H0Z" fill="#FFD911"/>
<path d="M67.7258 41.7255L64.0044 45.6107H165.667L165.657 41.7255H67.7258Z" fill="#D41426"/>
<path d="M38.8519 36.4649H33.6609L33.9206 34.9297C32.2999 36.3704 31.1394 36.8854 29.1735 36.8854C25.5967 36.8854 23.348 34.2778 23.4565 30.1937C23.5847 25.4871 26.8459 22.0157 31.123 22.0157C33.1185 22.0157 34.154 22.4884 35.6959 24.0268L35.9655 22.4264H40.9658L38.8519 36.4649ZM28.7856 29.8287C28.7362 31.6474 29.8178 32.785 31.5602 32.785C33.4604 32.785 34.9003 31.1846 34.9562 28.9845C35.0022 27.2244 33.9699 26.0901 32.244 26.0901C30.3438 26.0901 28.848 27.6905 28.7856 29.8287Z" fill="white"/>
<path d="M109.783 36.4646H104.598L104.871 34.9392C103.251 36.3798 102.09 36.8948 100.124 36.8948C96.5473 36.8948 94.2954 34.2873 94.4072 30.2032C94.5354 25.5193 97.7966 22.035 102.074 22.035C104.069 22.035 105.101 22.5076 106.647 24.0461L106.975 22.4457H111.907L109.783 36.4646ZM99.7231 29.8283C99.6738 31.6471 100.759 32.7847 102.498 32.7847C104.398 32.7847 105.838 31.1843 105.894 28.9841C105.94 27.224 104.891 26.0897 103.182 26.0897C101.281 26.0897 99.779 27.6901 99.7231 29.8283Z" fill="white"/>
<path d="M52.5146 27.3447C51.5283 26.3995 50.7722 26.0833 49.5953 26.0833C47.7247 26.0833 46.2552 27.6837 46.1993 29.7567C46.1533 31.5787 47.2579 32.775 48.9739 32.775C50.0161 32.775 50.6933 32.524 51.8538 31.7124L51.1963 36.1094C49.4079 36.7026 48.6452 36.8656 47.4683 36.8656C43.4772 36.8656 40.7651 33.9744 40.8703 29.7958C40.9886 25.3336 44.401 22.0057 48.8687 22.0057C50.3516 21.9892 51.8169 22.3244 53.1425 22.9835L52.5146 27.3447Z" fill="white"/>
<path d="M57.8898 30.4903C57.8405 32.3743 58.5802 33.225 60.2601 33.225C61.437 33.225 62.0814 32.785 62.3247 31.7843H68.0515C66.5656 35.3306 64.1788 36.8756 60.1155 36.8756C55.513 36.8756 52.8336 34.2974 52.9421 29.9949C53.0704 25.2785 56.5781 22.0157 61.5225 22.0157C65.9607 22.0157 68.7123 24.7504 68.5939 29.0562C68.5939 29.4017 68.5381 29.8776 68.4887 30.4969H57.8898V30.4903ZM63.255 27.5568C63.1992 26.1455 62.397 25.386 60.9965 25.386C59.596 25.386 58.669 26.1129 58.3106 27.5568H63.255Z" fill="white"/>
<path d="M131.625 30.4903C131.576 32.3743 132.316 33.225 133.995 33.225C135.166 33.225 135.817 32.785 136.063 31.7843H141.764C140.278 35.3306 137.891 36.8756 133.838 36.8756C129.235 36.8756 126.553 34.2974 126.664 29.9949C126.793 25.2785 130.281 22.0157 135.245 22.0157C139.68 22.0157 142.431 24.7504 142.319 29.0562C142.319 29.4017 142.267 29.8776 142.218 30.4969H131.625V30.4903ZM136.994 27.5568C136.938 26.1455 136.136 25.386 134.735 25.386C133.335 25.386 132.404 26.1129 132.046 27.5568H136.994Z" fill="white"/>
<path d="M148.898 24.3331C150.518 22.8891 151.672 22.4165 153.645 22.4165C153.898 22.4165 154.246 22.4165 154.694 22.4491L153.993 27.2568C153.28 26.8321 152.461 26.6141 151.63 26.6277C149.476 26.6277 148.595 27.6056 148.142 30.4902L147.257 36.468H142.02L144.137 22.4165H149.154L148.898 24.3331Z" fill="white"/>
<path d="M164.76 26.934C163.33 25.9888 162.479 25.7117 161.341 25.7117C160.204 25.7117 159.559 25.9953 159.546 26.5624C159.546 26.8884 159.664 27.0057 160.069 27.1948C160.253 27.2567 159.592 27.0677 162.041 27.7293C164.602 28.4203 165.74 29.6133 165.69 31.657C165.612 34.8349 162.985 36.8721 158.964 36.8721C156.663 36.8721 154.891 36.3049 152.521 34.7371L154.513 31.318C156.571 32.6674 157.449 32.9803 159.007 32.9803C160.079 32.9803 160.818 32.6022 160.835 32.0025C160.835 31.6765 160.661 31.4647 160.253 31.3082C160.128 31.2756 160.756 31.4353 158.363 30.8649C155.733 30.2424 154.641 28.9842 154.697 26.7841C154.776 23.8506 157.265 21.9438 160.874 21.9438C162.646 21.9438 164.221 22.3838 166.134 23.3845L164.76 26.934Z" fill="white"/>
</svg>
